<svg xmlns="http://www.w3.org/2000/svg">
  <symbol id="icon-twitter" viewBox="0 0 17.5 14.66">
    <path d="M11.28.15A3.31 3.31 0 0115 1.3c.69-.22 1.37-.47 2.07-.69a2.27 2.27 0 01-.88 1.73 1.62 1.62 0 001.34-.48 2.89 2.89 0 01-1.61 2c-.24 6.59-3.27 11-10.38 10.82h-.49c-.42 0-4.29-.45-5-1.84a6.64 6.64 0 004.84-1.15c-1-.3-2.77-.47-3.07-2.88A2.13 2.13 0 003 8.9C1.76 8.07.38 7.37.46 5.22a2 2 0 001.38.46C1.12 5.44-.19 2.4.92.84c1.87 1.81 3.85 3.52 7.37 3.69C8.51 2.29 9.46.79 11.28.15z" fill="#D22856"/>
  </symbol>
  <symbol id="icon-facebook" viewBox="0 0 8.67 18.94">
    <path d="M6.27 3.36h2.4V0H5.8C2.66.18 1.54 2.39 2 6.12H0v3.51h2v9.31h3.8V9.63h2.85V6.12H5.79c-.02-1.05-.04-2.41.48-2.76z" fill="#D22856"/>
  </symbol>
  <symbol id="icon-youtobe" viewBox="0 0 14.64 13.96">
    <path d="M1.78 13.78A1.14 1.14 0 010 12.67V1.29A1.14 1.14 0 011.78.18l12.13 5.93c1 .48 1 1.26 0 1.74z" fill="#D22856"/>
  </symbol>
  <symbol id="icon-academy" viewBox="0 0 154.38 195.33">
    <path d="M78 .59L77.19.5.5 8.54v140.57l76.69 45.63 76.69-45.63V8.54zm65.85 142.82l-66.66 39.66-66.66-39.66V85.79l66.38 39.51.11 7.16-45.54-27.1-.06 7 45.71 27.47.11 7.35L31.54 120l-.06 7 45.71 27.47 46.15-27.61v-7h0V97.1l20.56-12.28zm0-66.06l-18.29 10.74-8.42 5L77 69.17l-.06 7 34.31 20.41-.3.18-.74.43-4.88 2.81L77 83.16l-.06 7 22.36 13.3-5.3 3.48-.12.07L77 97.06l-.06 7L88 110.54l-11.29 6.78-66-39.26 66.11-39.75h0zm0-7l-67-39.51h0L10.53 70.31V17.58l66.66-7 66.66 7z" stroke="#231f20" stroke-miterlimit="10" fill="#D22856"/>
  </symbol>
</svg>
